<svg xmlns="http://www.w3.org/2000/svg" xmlns:xlink="http://www.w3.org/1999/xlink" width="704" height="289" viewBox="0 0 704 289">
  <defs>
    <clipPath id="clip-atouts">
      <rect width="704" height="289"/>
    </clipPath>
  </defs>
  <g id="atouts" clip-path="url(#clip-atouts)">
    <rect width="704" height="289" fill="rgba(255,255,255,0)"/>
    <path id="Tracé_1" data-name="Tracé 1" d="M-.61,198.539V627.267H695.93S413.248,555,239.113,447.821-.61,198.539-.61,198.539Z" transform="translate(-112.064 154.374) rotate(-14)" fill="#d6eaff"/>
    <path id="Tracé_1_-_Contour" data-name="Tracé 1 - Contour" d="M-.156,198.329c.041.089,4.2,9.046,12.961,23.859,5.146,8.7,10.851,17.688,16.955,26.714,7.63,11.282,15.909,22.656,24.608,33.806a683.852,683.852,0,0,0,74.183,80.6A713.814,713.814,0,0,0,239.375,447.4c39.7,24.434,88.406,49.069,144.771,73.22,45.1,19.324,95.172,38.382,148.829,56.646,47.741,16.25,89.539,28.849,116.2,36.557,28.884,8.352,46.706,12.919,46.883,12.964l-.124.984H-1.11V198.539Zm692.19,428.438C685.349,625,670.1,620.912,648.9,614.781c-26.667-7.711-68.481-20.314-116.24-36.571-53.682-18.272-103.78-37.34-148.9-56.674-26.794-11.481-52.11-23.184-75.243-34.785-25.45-12.763-48.888-25.718-69.663-38.5a720.944,720.944,0,0,1-60.338-41.513c-17.51-13.416-34.554-27.787-50.659-42.714a684.82,684.82,0,0,1-74.3-80.726c-8.712-11.168-17-22.561-24.645-33.862-6.114-9.042-11.828-18.045-16.982-26.761C5.529,211.851,1.578,204.142-.11,200.723V626.767Z" transform="translate(-112.064 154.374) rotate(-14)" fill="#d6eaff"/>
    <path id="Tracé_5" data-name="Tracé 5" d="M-.61,198.539V484.951H295.971S175.81,433.06,108.96,373.161-.61,198.539-.61,198.539Z" transform="translate(502.208 46.292) rotate(104)" fill="#d6eaff"/>
    <path id="Tracé_5_-_Contour" data-name="Tracé 5 - Contour" d="M-.609,197.039a1.5,1.5,0,0,1,1.4.977c.027.072,2.723,7.291,7.707,18.827,4.6,10.644,12.139,27.245,21.951,45.885,17.307,32.878,45.15,78.532,79.507,109.317,34.421,30.841,83.319,59.522,118.279,78.15,37.9,20.2,68.026,33.25,68.326,33.38a1.5,1.5,0,0,1-.595,2.877H-.61a1.5,1.5,0,0,1-1.5-1.5V198.539a1.5,1.5,0,0,1,1.234-1.476A1.506,1.506,0,0,1-.609,197.039ZM288.906,483.451c-3.358-1.517-7.912-3.6-13.395-6.187-11.246-5.3-28.822-13.839-48.683-24.422-22.329-11.9-42.939-23.9-61.257-35.682-22.922-14.738-42.305-29.166-57.613-42.881C92.625,360.539,77.3,342.77,62.408,321.466a537.929,537.929,0,0,1-34.629-57.379C17.923,245.361,10.35,228.686,5.733,218c-1.981-4.587-3.6-8.5-4.842-11.553V483.451Z" transform="translate(502.208 46.292) rotate(104)" fill="#d6eaff"/>
  </g>
</svg>
