<svg xmlns="http://www.w3.org/2000/svg" xmlns:xlink="http://www.w3.org/1999/xlink" width="1907" height="594" viewBox="0 0 1907 594">
  <defs>
    <clipPath id="clip-difficulte">
      <rect width="1907" height="594"/>
    </clipPath>
  </defs>
  <g id="difficulte" clip-path="url(#clip-difficulte)">
    <rect width="1907" height="594" fill="rgba(255,255,255,0)"/>
    <path id="Tracé_1" data-name="Tracé 1" d="M-.61,198.539V627.267H695.93S413.248,555,239.113,447.821-.61,198.539-.61,198.539Z" transform="translate(-112.064 154.374) rotate(-14)" fill="#d6eaff"/>
    <path id="Tracé_1_-_Contour" data-name="Tracé 1 - Contour" d="M-.156,198.329c.041.089,4.2,9.046,12.961,23.859,5.146,8.7,10.851,17.688,16.955,26.714,7.63,11.282,15.909,22.656,24.608,33.806a683.852,683.852,0,0,0,74.183,80.6A713.814,713.814,0,0,0,239.375,447.4c39.7,24.434,88.406,49.069,144.771,73.22,45.1,19.324,95.172,38.382,148.829,56.646,47.741,16.25,89.539,28.849,116.2,36.557,28.884,8.352,46.706,12.919,46.883,12.964l-.124.984H-1.11V198.539Zm692.19,428.438C685.349,625,670.1,620.912,648.9,614.781c-26.667-7.711-68.481-20.314-116.24-36.571-53.682-18.272-103.78-37.34-148.9-56.674-26.794-11.481-52.11-23.184-75.243-34.785-25.45-12.763-48.888-25.718-69.663-38.5a720.944,720.944,0,0,1-60.338-41.513c-17.51-13.416-34.554-27.787-50.659-42.714a684.82,684.82,0,0,1-74.3-80.726c-8.712-11.168-17-22.561-24.645-33.862-6.114-9.042-11.828-18.045-16.982-26.761C5.529,211.851,1.578,204.142-.11,200.723V626.767Z" transform="translate(-112.064 154.374) rotate(-14)" fill="#d6eaff"/>
    <path id="Tracé_3" data-name="Tracé 3" d="M1664.07-357s158.019,57.518,261.35,144.513S2077.4-9.02,2077.4-9.02V-357Z" transform="translate(-9.148 825.416) rotate(-17)" fill="#d6eaff"/>
    <path id="Tracé_3_-_Contour" data-name="Tracé 3 - Contour" d="M1664.07-359.5H2079.9V-9.02l-4.807.963c-.03-.072-3.1-7.393-9.187-19.487-5.615-11.159-15.017-28.78-27.924-49.355-22.777-36.309-61.074-88.974-114.169-133.676-53.164-44.759-121.163-81.54-168.846-104.514-27.023-13.02-50.529-23.083-65.489-29.232-16.213-6.664-26.162-10.294-26.26-10.33Zm410.827,5H1677.581c3.838,1.512,8.461,3.363,13.744,5.534,15.021,6.173,38.621,16.275,65.755,29.347,30.5,14.7,59.17,30.074,85.2,45.708,32.567,19.561,61.081,39.584,84.752,59.512,12.383,10.425,24.622,21.827,36.378,33.887,10.683,10.96,21.207,22.712,31.28,34.927a632.108,632.108,0,0,1,47.588,66.126c13.006,20.741,22.481,38.506,28.139,49.757,1.744,3.468,3.236,6.531,4.482,9.148Z" transform="translate(-9.148 825.416) rotate(-17)" fill="#d6eaff"/>
  </g>
</svg>
