<svg xmlns="http://www.w3.org/2000/svg" width="1238.114" height="444.469" viewBox="0 0 1238.114 444.469"><g transform="translate(-801.386 1.5)"><path d="M-.61,198.539V642.381H1236.977s-568.37-30.308-877.766-141.268S-.61,198.539-.61,198.539Z" transform="translate(2038.39 641.381) rotate(180)" fill="#d6eaff"/><path d="M-.126,198.412c.008.03.81,3.052,2.769,8.439a247.438,247.438,0,0,0,9.935,23.194,348.2,348.2,0,0,0,19.541,34.761,427.5,427.5,0,0,0,31.587,43.143c29.747,35.823,66.448,69.028,109.084,98.693,53.3,37.085,116.078,68.711,186.591,94,70.547,25.3,160.58,48.47,267.6,68.863,85.624,16.317,182.249,30.9,287.191,43.354,41.228,4.891,83.855,9.461,126.7,13.582,34.273,3.3,68.76,6.315,102.5,8.971,57.45,4.523,93.281,6.45,93.636,6.469l-.027,1H-1.11V198.539ZM1220.118,641.881c-15.945-1-42.534-2.772-76.823-5.471-33.747-2.656-68.239-5.675-102.518-8.972-42.849-4.121-85.483-8.692-126.719-13.584C809.093,601.4,712.443,586.81,626.8,570.488c-50.856-9.691-98.35-20.109-141.16-30.963-23.012-5.835-45.124-11.911-65.722-18.061-21.536-6.43-42.016-13.119-60.87-19.881s-37.38-14.062-55.057-21.7c-16.91-7.3-33.494-15.1-49.293-23.189-15.065-7.71-29.813-15.88-43.834-24.284-13.321-7.984-26.335-16.389-38.68-24.98-42.713-29.724-79.482-63-109.285-98.9a428.394,428.394,0,0,1-31.653-43.248,349.048,349.048,0,0,1-19.585-34.856A248.2,248.2,0,0,1,1.691,207.16c-.771-2.122-1.364-3.88-1.8-5.236V641.881Z" transform="translate(2038.39 641.381) rotate(180)" fill="#d6eaff"/></g></svg>